<svg width="375" height="375" viewBox="0 0 375 375" fill="none" xmlns="http://www.w3.org/2000/svg">
<path d="M362.236 1.04709L10.9999 2.70227C5.4771 2.72829 1.0211 7.22649 1.04712 12.7493L2.7023 363.985C2.72832 369.508 7.22652 373.964 12.7493 373.938L363.985 372.283C369.508 372.257 373.964 367.759 373.938 362.236L372.283 10.9999C372.257 5.47707 367.759 1.02107 362.236 1.04709Z" fill="#F8F8F8" stroke="white" stroke-miterlimit="10"/>
<path d="M32.6122 28.2496C32.6122 31.8615 29.6842 34.7896 26.0722 34.7896C22.4603 34.7896 19.5322 31.8615 19.5322 28.2496C19.5322 24.6376 22.4603 21.7096 26.0722 21.7096C29.6842 21.7096 32.6122 24.6376 32.6122 28.2496Z" fill="#F88484" stroke="white"/>
<path d="M58.6523 28.2496C58.6523 31.8615 55.7242 34.7896 52.1123 34.7896C48.5003 34.7896 45.5723 31.8615 45.5723 28.2496C45.5723 24.6376 48.5003 21.7096 52.1123 21.7096C55.7242 21.7096 58.6523 24.6376 58.6523 28.2496Z" fill="#FCD859" stroke="white"/>
<path d="M84.6923 28.2496C84.6923 31.8615 81.7642 34.7896 78.1523 34.7896C74.5404 34.7896 71.6123 31.8615 71.6123 28.2496C71.6123 24.6376 74.5404 21.7096 78.1523 21.7096C81.7642 21.7096 84.6923 24.6376 84.6923 28.2496Z" fill="#6CE3BF" stroke="white"/>
<path d="M29.482 72.8197H36.152L46.602 104.87H40.582L35.702 87.8097C34.682 84.4197 33.742 80.7597 32.802 77.2397H32.602C31.722 80.7897 30.782 84.4197 29.762 87.8097L24.842 104.87H19.042L29.492 72.8197H29.482ZM25.212 91.7297H40.312V96.1897H25.212V91.7297Z" fill="#3557FF"/>
<path d="M53.1725 92.6096H57.2025L63.5225 111.99H59.8825L56.9325 101.68C56.3125 99.6296 55.7425 97.4196 55.1825 95.2896H55.0625C54.5325 97.4396 53.9625 99.6296 53.3425 101.68L50.3625 111.99H46.8525L53.1725 92.6096ZM50.5925 104.04H59.7225V106.74H50.5925V104.04Z" fill="#3557FF"/>
<path d="M174.972 212.13H328.072C336.776 212.13 343.832 219.186 343.832 227.89V321.59C343.832 330.294 336.776 337.35 328.072 337.35H174.972C166.268 337.35 159.212 330.294 159.212 321.59V227.89C159.212 219.186 166.268 212.13 174.972 212.13Z" fill="#3557FF" stroke="white"/>
<path d="M202.763 244.58C202.763 250.71 197.793 255.68 191.663 255.68C185.532 255.68 180.562 250.71 180.562 244.58C180.562 238.449 185.532 233.48 191.663 233.48C197.793 233.48 202.763 238.449 202.763 244.58Z" fill="#FCD859" stroke="white"/>
<path d="M179.109 319.036C178.26 319.864 178.822 321.346 180.048 321.36L331.246 323.03C331.246 323.03 331.247 323.03 331.247 323.03C332.264 323.036 332.927 321.968 332.475 321.063L332.475 321.063L298.636 253.305C298.636 253.305 298.636 253.305 298.636 253.304C298.18 252.402 296.946 252.29 296.341 253.091L296.341 253.092L265.632 293.62C265.631 293.621 265.631 293.621 265.631 293.621C264.895 294.598 263.535 294.852 262.495 294.192C262.495 294.192 262.495 294.192 262.494 294.192L233.757 275.983C233.756 275.983 233.756 275.983 233.756 275.983C233.267 275.677 232.63 275.713 232.177 276.078L179.109 319.036ZM179.109 319.036L179.217 318.948L232.176 276.079L179.109 319.036Z" fill="white" stroke="white"/>
<path d="M84.0621 98.6008L339.369 97.3977C342.297 97.3839 344.68 99.7438 344.694 102.668C344.708 105.592 342.347 107.974 339.419 107.988L84.112 109.191C81.1845 109.205 78.8008 106.845 78.7871 103.921C78.7733 100.997 81.1346 98.6146 84.0621 98.6008Z" fill="#CCCCE7" stroke="white"/>
<path d="M84.1812 123.85L339.488 122.647C342.416 122.633 344.799 124.993 344.813 127.917C344.827 130.841 342.466 133.223 339.538 133.237L84.2311 134.44C81.3036 134.454 78.92 132.094 78.9062 129.17C78.8924 126.246 81.2537 123.864 84.1812 123.85Z" fill="#CCCCE7" stroke="white"/>
<path d="M26.1675 152.783L339.514 151.306C342.442 151.293 344.825 153.653 344.839 156.576C344.853 159.5 342.491 161.883 339.564 161.896L26.2174 163.373C23.2899 163.387 20.9063 161.027 20.8925 158.103C20.8788 155.179 23.24 152.797 26.1675 152.783Z" fill="#CCCCE7" stroke="white"/>
<path d="M26.1666 178.043L339.513 176.566C342.441 176.552 344.824 178.912 344.838 181.836C344.852 184.76 342.49 187.142 339.563 187.156L26.2165 188.633C23.289 188.647 20.9053 186.287 20.8916 183.363C20.8778 180.439 23.2391 178.057 26.1666 178.043Z" fill="#CCCCE7" stroke="white"/>
<path d="M25.4673 230.755L134.166 230.243C137.094 230.229 139.477 232.589 139.491 235.513C139.505 238.437 137.144 240.819 134.216 240.833L25.5172 241.345C22.5898 241.359 20.2061 238.999 20.1923 236.075C20.1786 233.151 22.5398 230.769 25.4673 230.755Z" fill="#CCCCE7" stroke="white"/>
<path d="M25.4761 256.005L134.175 255.493C137.102 255.479 139.486 257.839 139.5 260.763C139.514 263.687 137.152 266.069 134.225 266.083L25.526 266.595C22.5985 266.609 20.2149 264.249 20.2011 261.325C20.1874 258.401 22.5486 256.019 25.4761 256.005Z" fill="#CCCCE7" stroke="white"/>
<path d="M25.4771 283.755L134.176 283.243C137.103 283.229 139.487 285.589 139.501 288.513C139.515 291.437 137.153 293.819 134.226 293.833L25.527 294.345C22.5995 294.359 20.2159 291.999 20.2021 289.075C20.1883 286.151 22.5496 283.769 25.4771 283.755Z" fill="#CCCCE7" stroke="white"/>
<path d="M25.4859 309.005L134.185 308.492C137.112 308.479 139.496 310.838 139.51 313.762C139.523 316.686 137.162 319.068 134.235 319.082L25.5358 319.595C22.6083 319.608 20.2247 317.248 20.2109 314.325C20.1971 311.401 22.5584 309.018 25.4859 309.005Z" fill="#CCCCE7" stroke="white"/>
</svg>
