<svg width="331" height="300" viewBox="0 0 331 300" fill="none" xmlns="http://www.w3.org/2000/svg">
<path d="M243.254 62.8676H227.812V18.2206C227.812 17.4154 225.882 15.4412 222.298 15.4412H110.901C107.316 15.4412 105.386 17.4154 105.386 18.2206V62.8676H89.9448V18.2206C89.9448 8.1728 99.3419 0 110.901 0H222.298C233.857 0 243.254 8.1728 243.254 18.2206V62.8676Z" fill="#000625"/>
<path d="M58.7869 259.191H44.4487C37.139 259.191 31.2134 265.117 31.2134 272.426V286.765C31.2134 294.074 37.139 300 44.4487 300H58.7869C66.0966 300 72.0222 294.074 72.0222 286.765V272.426C72.0222 265.117 66.0966 259.191 58.7869 259.191Z" fill="#000625"/>
<path d="M288.199 259.191H273.86C266.551 259.191 260.625 265.117 260.625 272.426V286.765C260.625 294.074 266.551 300 273.86 300H288.199C295.508 300 301.434 294.074 301.434 286.765V272.426C301.434 265.117 295.508 259.191 288.199 259.191Z" fill="#000625"/>
<path d="M308.824 48.3971H22.0588C9.87607 48.3971 0 58.2732 0 70.4559V257.129C0 269.311 9.87607 279.188 22.0588 279.188H308.824C321.006 279.188 330.882 269.311 330.882 257.129V70.4559C330.882 58.2732 321.006 48.3971 308.824 48.3971Z" fill="#EDF0FF"/>
<g opacity="0.5">
<path d="M72.7721 48.3971H55.125V147.066H72.7721V48.3971Z" fill="#7384D8"/>
<path d="M284.272 48.6838H266.625V147.353H284.272V48.6838Z" fill="#7384D8"/>
<path d="M330.143 148.897H0.364014V170.956H330.143V148.897Z" fill="#7384D8"/>
</g>
<path d="M68.5147 48.3971H50.8677V147.066H68.5147V48.3971Z" fill="#F88484"/>
<path d="M280.015 48.6837H262.368V147.353H280.015V48.6837Z" fill="#F88484"/>
<path d="M330.882 147.066H0V169.125H330.882V147.066Z" fill="#F88484"/>
<path d="M176.47 66.1765H154.412V132.353H176.47V66.1765Z" fill="#F88484"/>
<path d="M198.529 110.294V88.2354H132.353V110.294H198.529Z" fill="#F88484"/>
</svg>
