<svg width="289" height="381" viewBox="0 0 289 381" fill="none" xmlns="http://www.w3.org/2000/svg">
<path d="M154.27 136.307H138.24C115.65 136.307 93.1298 139.527 71.5998 146.367C71.2398 146.477 70.8798 146.597 70.5198 146.717C50.5198 153.197 34.2098 167.917 25.6698 187.127C5.23981 233.077 -30.8502 336.207 51.8598 345.137C52.9798 345.257 53.8598 346.257 53.8098 347.377L52.2898 380.757H246.47V352.077C246.47 350.677 247.46 349.497 248.83 349.227C257.73 347.517 288.7 338.677 288.7 298.737C288.7 252.827 280.91 163.287 240.78 149.757C240.78 149.757 206.1 136.307 154.26 136.307H154.27Z" fill="#F8F8F8"/>
<path d="M241.16 252.807C241.63 252.747 242.06 252.957 242.44 253.067C253.7 256.287 218.32 265.937 218.32 265.937C218.32 265.937 244.64 257.927 249.97 259.517C255.3 261.107 250.48 265.937 219.92 275.587C219.92 275.587 250.48 264.327 247.26 272.367C247.26 272.367 252.01 273.987 219.88 284.437C219.88 284.437 239.21 278.797 240.82 282.017C242.43 285.237 227.95 293.277 210.26 293.277L165.23 286.847L163.62 272.377C163.62 272.377 176.49 270.767 182.92 267.557C182.92 267.557 191.61 258.997 241.14 252.827L241.16 252.807Z" fill="#EB9A81"/>
<path d="M84.0698 278.257C111.1 279.507 138.06 281.547 164.99 284.237C185.24 286.127 205.64 288.217 225.17 294.427C230.08 296.017 235.07 297.737 239.47 300.557C240.93 301.597 242.63 302.767 242.94 304.707L242.31 304.827C241.68 303.497 240.05 302.847 238.59 302.247C220.99 296.967 202.33 296.157 184.32 292.627C164.4 289.087 144.33 286.457 124.25 283.897C110.86 282.107 97.4498 280.527 84.0298 278.907L84.0798 278.267L84.0698 278.257Z" fill="#EDF0FF"/>
<path d="M84.8397 278.797C84.8397 278.797 51.3697 251.077 44.6297 259.497C38.1997 267.537 38.1997 293.267 52.6697 301.307L71.9697 307.737L84.8397 278.787V278.797Z" fill="#EB9A81"/>
<path d="M44.6398 259.507C44.6398 259.507 42.2698 236.657 49.4598 226.477C49.6898 226.147 50.2098 226.297 50.2398 226.697C50.7298 232.217 53.8498 256.607 70.9698 268.447C70.9698 268.447 48.7498 253.237 44.6298 259.507H44.6398Z" fill="#EDF0FF"/>
<path d="M248.85 349.237L75.0898 311.607L246.49 366.447C246.49 366.447 245.56 351.807 248.85 349.237Z" fill="#EDF0FF"/>
<path d="M98.6499 238.497C97.3499 238.497 96.1199 237.697 95.6399 236.407C83.1499 203.087 81.8299 175.907 91.7199 155.637C101.41 135.767 118.33 130.257 119.04 130.027C120.73 129.497 122.54 130.437 123.07 132.127C123.6 133.817 122.66 135.617 120.97 136.157C120.76 136.227 105.82 141.227 97.4199 158.597C88.4199 177.217 89.8399 202.627 101.66 234.147C102.28 235.807 101.44 237.667 99.7799 238.287C99.4099 238.427 99.0299 238.497 98.6499 238.497Z" fill="#000625"/>
<path d="M101.39 251.167C107.288 251.167 112.07 246.386 112.07 240.487C112.07 234.589 107.288 229.807 101.39 229.807C95.4916 229.807 90.71 234.589 90.71 240.487C90.71 246.386 95.4916 251.167 101.39 251.167Z" fill="#D2D9FF"/>
<path d="M101.39 247.787C105.422 247.787 108.69 244.519 108.69 240.487C108.69 236.456 105.422 233.187 101.39 233.187C97.3582 233.187 94.0898 236.456 94.0898 240.487C94.0898 244.519 97.3582 247.787 101.39 247.787Z" fill="#EDF0FF"/>
<path d="M54.1802 346.987L80.8202 345.137L52.9502 366.447L54.1802 346.987Z" fill="#EDF0FF"/>
<path d="M101.55 154.707C99.8197 169.187 101.13 184.117 104.16 198.347C107.35 212.587 113.08 226.087 119.61 239.067C121.44 242.857 123.71 246.367 125.6 250.137L125.34 250.327C117.06 240.767 110.52 229.387 106.52 217.327C104.63 211.307 103.01 205.007 101.87 198.807C100.82 193.007 99.9697 185.757 99.7297 179.887C99.4097 171.437 99.7597 162.957 101.23 154.647L101.55 154.707Z" fill="#EDF0FF"/>
<path d="M190.22 154.647C193.05 171.247 192.03 188.647 188.27 205.027C184.81 221.627 177.3 237.557 166.12 250.317L165.86 250.127C166.82 248.237 167.87 246.417 168.87 244.567C177.88 228.237 185.22 210.657 188.54 192.197C189.11 188.587 189.85 183.377 190.12 179.767C190.86 171.447 190.95 163.007 189.91 154.687L190.23 154.627L190.22 154.647Z" fill="#EDF0FF"/>
<path d="M223.85 248.887C223.75 248.887 223.66 248.887 223.56 248.867C209.53 247.167 198.56 238.567 190.97 223.297C190.9 223.157 190.83 223.027 190.78 222.907C190.29 222.467 189.98 221.837 189.98 221.127C189.98 220.007 190.77 218.887 191.86 218.627C193.81 218.157 194.59 219.747 195.29 221.147C202.11 234.867 211.82 242.587 224.14 244.077C225.46 244.237 226.4 245.437 226.24 246.767C226.09 247.987 225.05 248.887 223.85 248.887Z" fill="#D2D9FF"/>
<path d="M197.25 245.747C196.43 245.747 195.59 245.717 194.74 245.667C193.41 245.577 192.4 244.427 192.49 243.097C192.58 241.767 193.75 240.757 195.06 240.847C216.98 242.317 224.2 221.657 224.5 220.777C224.93 219.517 226.3 218.837 227.55 219.257C228.81 219.677 229.49 221.037 229.07 222.307C228.99 222.547 220.98 245.747 197.25 245.747Z" fill="#D2D9FF"/>
<path d="M205.35 179.737C203.86 179.737 202.52 178.697 202.21 177.187C196.2 148.637 175.18 137.687 174.96 137.587C173.38 136.787 172.74 134.857 173.54 133.267C174.34 131.687 176.26 131.037 177.85 131.837C178.83 132.327 201.83 144.157 208.51 175.867C208.88 177.607 207.76 179.307 206.03 179.677C205.81 179.727 205.58 179.747 205.36 179.747L205.35 179.737Z" fill="#000625"/>
<path d="M197.31 232.807C196.32 232.807 195.34 232.357 194.71 231.497C183.35 215.997 183.24 203.347 185.14 195.457C186.97 187.867 191.7 181.357 197.47 178.477C204.93 174.747 219.97 174.307 228.83 183.157C235.22 189.547 240.18 202.487 227.51 227.817C226.72 229.407 224.79 230.047 223.19 229.257C221.59 228.467 220.96 226.527 221.75 224.937C230.42 207.597 231.29 194.727 224.27 187.707C217.64 181.077 205.91 181.437 200.33 184.227C197.1 185.847 193.05 190.037 191.37 196.967C189.78 203.527 189.97 214.187 199.87 227.697C200.92 229.127 200.61 231.137 199.18 232.197C198.61 232.617 197.94 232.817 197.28 232.817L197.31 232.807Z" fill="#000625"/>
<path d="M227.157 247.542C227.639 245.841 225.961 243.878 223.41 243.156C220.859 242.434 218.401 243.227 217.92 244.928C217.439 246.629 219.117 248.592 221.667 249.314C224.218 250.036 226.676 249.242 227.157 247.542Z" fill="#D2D9FF"/>
<path d="M197.905 244.016C198.206 242.275 196.332 240.497 193.72 240.046C191.107 239.595 188.746 240.641 188.445 242.382C188.144 244.124 190.018 245.901 192.63 246.353C195.243 246.804 197.604 245.758 197.905 244.016Z" fill="#D2D9FF"/>
<path d="M124.69 107.357L116.64 137.917L148.81 165.257L177.76 137.917L171.32 107.357H124.69Z" fill="#EB9A81"/>
<path d="M123.33 112.187L121.72 118.617C121.72 118.617 139.41 136.307 176.4 131.487L173.18 112.187C173.18 112.187 148.8 124.597 123.33 112.187Z" fill="#D8826D"/>
<path d="M147.46 123.447C171.44 123.447 190.88 99.6872 190.88 70.3774C190.88 41.0677 171.44 17.3074 147.46 17.3074C123.48 17.3074 104.04 41.0677 104.04 70.3774C104.04 99.6872 123.48 123.447 147.46 123.447Z" fill="#EB9A81"/>
<path d="M100.82 68.7674C100.82 68.7674 102.43 65.5474 105.64 65.5474C108.85 65.5474 110.46 73.5874 110.46 73.5874C110.46 73.5874 110.46 46.2474 118.5 41.4274C118.5 41.4274 149.06 43.0374 163.53 25.3474C163.53 25.3474 187.65 34.9974 189.26 75.1974C189.26 75.1974 189.26 68.7674 197.3 68.7674C197.3 68.7674 210.17 10.8674 171.57 7.65743C171.57 7.65743 118.5 -21.2926 99.2001 33.3874C99.2001 33.3874 92.7701 41.4274 100.81 68.7674H100.82Z" fill="#000625"/>
<path d="M107.262 90.3661C111.197 89.6566 113.301 83.0583 111.961 75.6284C110.622 68.1984 106.346 62.7504 102.411 63.4599C98.4757 64.1693 96.3716 70.7676 97.7111 78.1976C99.0506 85.6275 103.327 91.0755 107.262 90.3661Z" fill="#EB9A81"/>
<path d="M197.773 78.2008C199.113 70.7708 197.009 64.1725 193.074 63.4631C189.139 62.7536 184.863 68.2016 183.523 75.6316C182.184 83.0615 184.288 89.6598 188.223 90.3693C192.158 91.0788 196.434 85.6307 197.773 78.2008Z" fill="#EB9A81"/>
<path d="M116.64 137.917L148.81 153.997L177.76 137.917L153.63 269.787H145.59L116.64 137.917Z" fill="#3557FF"/>
<path d="M163.76 272.667C156.02 273.387 147.64 272.707 139.9 272.337C135.98 272.097 131.97 272.377 128.13 271.387C124.18 270.407 120.39 269.137 116.86 266.887L116.95 266.247C124.84 263.907 132.86 265.087 140.58 267.237C145.73 268.277 152.76 269.827 157.88 270.977C159.41 271.277 162.07 271.907 163.53 272.057L163.75 272.657L163.76 272.667Z" fill="#EDF0FF"/>
<path d="M102.43 81.6375C102.17 81.6375 101.92 81.5075 101.76 81.2775C99.5699 77.9875 98.6799 73.8375 99.5199 70.7075C99.9599 69.0575 100.84 67.8675 102.07 67.2475C103.04 66.7675 104.03 66.7075 104.93 67.0775C107 67.9375 107.98 70.8075 108.02 70.9275C108.16 71.3475 107.93 71.8075 107.51 71.9475C107.09 72.0875 106.63 71.8675 106.49 71.4375C106.27 70.7975 105.46 69.0375 104.31 68.5675C103.84 68.3775 103.34 68.4175 102.79 68.6875C101.77 69.1975 101.29 70.2975 101.07 71.1275C100.36 73.7875 101.18 77.5075 103.1 80.3975C103.35 80.7675 103.25 81.2675 102.88 81.5175C102.74 81.6075 102.59 81.6575 102.43 81.6575V81.6375Z" fill="#D8826D"/>
<path d="M193.16 81.6375C193.42 81.6375 193.67 81.5075 193.83 81.2775C196.02 77.9875 196.91 73.8375 196.07 70.7075C195.63 69.0575 194.75 67.8675 193.52 67.2475C192.55 66.7675 191.56 66.7075 190.66 67.0775C188.59 67.9375 187.61 70.8075 187.57 70.9275C187.43 71.3475 187.66 71.8075 188.08 71.9475C188.5 72.0875 188.96 71.8675 189.1 71.4375C189.32 70.7975 190.13 69.0375 191.28 68.5675C191.75 68.3775 192.25 68.4175 192.8 68.6875C193.82 69.1975 194.3 70.2975 194.52 71.1275C195.23 73.7875 194.41 77.5075 192.49 80.3975C192.24 80.7675 192.34 81.2675 192.71 81.5175C192.85 81.6075 193 81.6575 193.16 81.6575V81.6375Z" fill="#D8826D"/>
</svg>
