<svg width="409" height="449" viewBox="0 0 409 449" fill="none" xmlns="http://www.w3.org/2000/svg">
<path d="M336.97 76.97C333.47 75.78 331.33 75.19 331.31 75.18L331.84 73.25C331.93 73.27 334.06 73.86 337.62 75.07L336.97 76.96V76.97Z" fill="#7484D8"/>
<path d="M182.01 315.93C180.51 312.15 179.38 308.12 178.64 303.94L180.61 303.59C181.32 307.63 182.42 311.53 183.87 315.19L182.01 315.93ZM179.59 291.56H177.59C177.59 287.56 177.91 283.4 178.54 279.19L180.52 279.48C179.91 283.59 179.6 287.65 179.59 291.55V291.56ZM183.06 267.62L181.13 267.09C182.19 263.26 183.51 259.31 185.04 255.36L186.9 256.08C185.39 259.96 184.1 263.85 183.05 267.61L183.06 267.62ZM191.8 244.93L190 244.05C191.74 240.47 193.69 236.81 195.79 233.16L197.52 234.16C195.44 237.77 193.52 241.39 191.79 244.93H191.8ZM203.93 223.77L202.26 222.67C204.44 219.34 206.8 215.93 209.27 212.54L210.89 213.72C208.44 217.08 206.1 220.46 203.94 223.76L203.93 223.77ZM357.53 210.8H356.94L356.96 208.8H357.53C361.56 208.8 365.37 208.34 368.85 207.44L369.35 209.38C365.7 210.33 361.73 210.81 357.53 210.81V210.8ZM344.58 209.53C340.9 208.86 336.96 207.92 332.55 206.67L333.1 204.75C337.44 205.99 341.32 206.91 344.94 207.57L344.58 209.54V209.53ZM218.62 204.41L217.18 203.02C220.18 199.93 223.36 197.21 226.64 194.94L227.78 196.58C224.61 198.78 221.53 201.41 218.62 204.41ZM380.81 204.34L379.72 202.66C382.91 200.59 385.93 197.94 388.69 194.78L390.2 196.1C387.31 199.4 384.15 202.18 380.81 204.34ZM320.79 202.96C317.46 201.83 314.1 200.65 310.71 199.46L309.18 198.92L309.84 197.03L311.37 197.57C314.74 198.76 318.1 199.93 321.42 201.06L320.78 202.95L320.79 202.96ZM297.6 194.94C293.26 193.51 289.43 192.34 285.91 191.37L286.44 189.44C289.99 190.42 293.85 191.59 298.23 193.04L297.6 194.94ZM238.35 190.89L237.62 189.03C241.43 187.53 245.48 186.45 249.67 185.83L249.96 187.81C245.92 188.41 242.02 189.44 238.35 190.89ZM274.05 188.63C269.77 187.86 265.83 187.4 262.01 187.23L262.1 185.23C266.01 185.4 270.04 185.86 274.41 186.66L274.05 188.63ZM397.38 185.93L395.65 184.93C397.54 181.68 399.33 178.01 400.99 174.04L402.84 174.81C401.15 178.86 399.31 182.6 397.38 185.93ZM406.91 163.1L404.97 162.59C406.02 158.57 406.67 154.57 406.9 150.7L408.9 150.82C408.67 154.82 408 158.96 406.91 163.11V163.1ZM406.23 138.72C405.55 134.82 404.39 130.95 402.78 127.23L404.62 126.44C406.29 130.3 407.49 134.32 408.2 138.38L406.23 138.72ZM396.87 116.75C394.65 113.59 392.03 110.48 389.08 107.5L390.5 106.09C393.52 109.15 396.21 112.34 398.5 115.59L396.87 116.74V116.75ZM379.99 99.46C376.92 97.07 373.56 94.73 370.01 92.51L371.07 90.81C374.68 93.07 378.1 95.45 381.22 97.88L379.99 99.46ZM359.4 86.5C355.86 84.68 352.14 82.94 348.34 81.33L349.12 79.49C352.96 81.12 356.72 82.88 360.31 84.72L359.4 86.5Z" fill="#EDF0FF"/>
<path d="M191.98 331.8C191.91 331.74 190.21 330.18 187.99 327.05L189.62 325.89C191.7 328.82 193.31 330.3 193.33 330.32L191.98 331.8Z" fill="#7484D8"/>
<path d="M318.87 71.2L287.27 63.65L280.77 79.11L200.88 36.68L320.23 0L301.9 32.84L318.87 71.2Z" fill="#FEE6E6"/>
<path d="M318.87 71.2L292.79 48.45L200.88 36.68L301.9 32.84L318.87 71.2Z" fill="#F88484"/>
<path d="M287.27 63.6501L292.79 48.4501L318.87 71.2001L287.27 63.6501Z" fill="#000625"/>
<path d="M39.1097 281.53L172.23 186.97C175 185 179.55 184.98 182.34 186.92L316.34 280.23C320.45 283.09 322.72 286.75 322.74 290.55L323.08 362.56L33.1497 363.91L32.8097 291.9C32.7897 288.1 35.0297 284.42 39.1097 281.52V281.53Z" fill="#D2B447"/>
<path d="M298.818 129.826L55.2406 130.974C49.7178 131 45.2618 135.498 45.2878 141.021L46.6178 423.248C46.6438 428.771 51.142 433.227 56.6648 433.201L300.242 432.053C305.765 432.027 310.221 427.528 310.195 422.006L308.865 139.779C308.839 134.256 304.341 129.8 298.818 129.826Z" fill="#F8F8F8"/>
<path d="M162.948 144.619L69.1188 145.062C65.6726 145.078 62.8921 147.885 62.9083 151.331L62.9084 151.341C62.9246 154.787 65.7315 157.568 69.1777 157.551L163.007 157.109C166.453 157.093 169.233 154.286 169.217 150.84L169.217 150.83C169.201 147.384 166.394 144.603 162.948 144.619Z" fill="#00157C"/>
<path d="M285.226 178.183L69.278 179.2C65.8318 179.217 63.0513 182.023 63.0675 185.47L63.0675 185.48C63.0838 188.926 65.8907 191.706 69.3369 191.69L285.284 190.673C288.731 190.656 291.511 187.849 291.495 184.403L291.495 184.393C291.479 180.947 288.672 178.166 285.226 178.183Z" fill="#EDF0FF"/>
<path d="M285.364 205.392L69.4162 206.409C65.97 206.426 63.1894 209.233 63.2057 212.679L63.2057 212.689C63.222 216.135 66.0288 218.916 69.475 218.899L285.423 217.882C288.869 217.865 291.649 215.059 291.633 211.612L291.633 211.602C291.617 208.156 288.81 205.376 285.364 205.392Z" fill="#EDF0FF"/>
<path d="M285.492 232.601L69.5446 233.619C66.0984 233.635 63.3179 236.442 63.3341 239.888L63.3341 239.898C63.3504 243.344 66.1573 246.125 69.6035 246.108L285.551 245.091C288.997 245.075 291.778 242.268 291.762 238.821L291.762 238.811C291.745 235.365 288.938 232.585 285.492 232.601Z" fill="#EDF0FF"/>
<path d="M285.61 259.81L69.6628 260.828C66.2166 260.844 63.436 263.651 63.4523 267.097L63.4523 267.107C63.4685 270.553 66.2754 273.334 69.7216 273.318L285.669 272.3C289.115 272.284 291.896 269.477 291.88 266.031L291.88 266.021C291.863 262.574 289.057 259.794 285.61 259.81Z" fill="#EDF0FF"/>
<path d="M285.749 287.019L69.801 288.037C66.3548 288.053 63.5742 290.86 63.5904 294.306L63.5905 294.316C63.6067 297.762 66.4136 300.543 69.8598 300.527L285.807 299.509C289.254 299.493 292.034 296.686 292.018 293.24L292.018 293.23C292.002 289.783 289.195 287.003 285.749 287.019Z" fill="#EDF0FF"/>
<path d="M285.877 314.228L69.9294 315.246C66.4832 315.262 63.7026 318.069 63.7189 321.515L63.7189 321.525C63.7351 324.971 66.542 327.752 69.9882 327.736L285.936 326.718C289.382 326.702 292.163 323.895 292.146 320.449L292.146 320.439C292.13 316.993 289.323 314.212 285.877 314.228Z" fill="#EDF0FF"/>
<path d="M286.005 341.447L70.0573 342.465C66.6111 342.481 63.8305 345.288 63.8468 348.734L63.8468 348.744C63.8631 352.19 66.6699 354.971 70.1162 354.955L286.064 353.937C289.51 353.921 292.291 351.114 292.274 347.668L292.274 347.658C292.258 344.212 289.451 341.431 286.005 341.447Z" fill="#EDF0FF"/>
<path d="M178.15 362.17L309.54 284.73C315.36 281.3 322.71 285.48 322.74 292.23L323.42 437.23C323.44 442.07 319.54 446 314.7 446.03L42.3697 447.3C37.5297 447.32 33.5997 443.42 33.5697 438.58L32.8897 293.58C32.8597 286.82 40.1697 282.58 46.0197 285.95L178.13 362.16L178.15 362.17Z" fill="#FCD859"/>
<g style="mix-blend-mode:soft-light" opacity="0.2">
<path d="M37.3601 430.54L172.74 326.37C175.81 324.01 179.96 323.99 183.04 326.32L319.39 429.22C326.94 434.92 322.91 446.87 313.43 446.92L43.4701 448.18C33.9901 448.22 29.8501 436.31 37.3501 430.54H37.3601Z" fill="black"/>
</g>
<path d="M37.4501 431.42L172.86 332.4C175.93 330.16 180.08 330.14 183.16 332.35L319.49 430.1C327.04 435.51 323.01 446.87 313.53 446.92L43.5701 448.18C34.0901 448.22 29.9601 436.9 37.4501 431.42Z" fill="#FEF3CD"/>
<path d="M43.93 185.8C68.1919 185.8 87.86 166.132 87.86 141.87C87.86 117.608 68.1919 97.9401 43.93 97.9401C19.6681 97.9401 0 117.608 0 141.87C0 166.132 19.6681 185.8 43.93 185.8Z" fill="#47DCAF"/>
<path d="M20.9602 144.35C20.9602 128.41 32.6802 117.88 46.6902 117.88C59.0302 117.88 66.8902 126.27 66.8902 138.22C66.8902 148.65 59.8902 153.88 53.9102 153.88C50.6102 153.88 47.9302 152.32 47.3202 149.54H47.2102C45.6302 151.8 42.6902 153.35 40.3402 153.35C35.8802 153.35 32.8202 149.99 32.8202 144.76C32.8202 137.8 37.8102 130.78 44.3502 130.78C46.2202 130.78 47.7202 131.6 48.6702 133.61H48.7802L49.6102 131.23H54.7602L52.1602 143.8C51.3502 147.11 52.2302 148.7 54.7602 148.7C58.2202 148.7 61.5802 144.68 61.5802 138.42C61.5802 130.26 57.1802 122.95 45.9802 122.95C36.2302 122.95 26.5902 131.29 26.5902 144.13C26.5902 155.39 34.3802 160.77 43.2602 160.77C46.2002 160.77 49.5602 159.82 51.9302 158.58L53.7602 163.15C50.2802 165.02 46.6502 165.85 42.5802 165.85C31.1602 165.85 20.9302 158.92 20.9302 144.34L20.9602 144.35ZM45.9402 145.5L47.3002 137.79C46.7102 136.73 45.8002 136.14 44.6402 136.14C41.2502 136.14 39.1602 140.85 39.1602 144.27C39.1602 146.81 40.2902 148.08 42.1702 148.08C43.3602 148.08 44.4902 147.39 45.9502 145.5H45.9402Z" fill="white"/>
</svg>
